# xmcd CD database file
#
# Track frame offsets:
#	150
#	12375
#	23542
#	38139
#	49483
#	63413
#	76797
#	90237
#	102260
#	114621
#	125485
#	138250
#	149389
#	161275
#
# Disc length: 2272 seconds
#
# Revision: 1
# Processed by: cddbd v1.5.1PL2 Copyright (c) Steve Scherf et al.
# Submitted via: CDex 1.70beta2
#
DISCID=ad08de0e
DTITLE=Tammy Wynette - The Great
DYEAR=1900
DGENRE=Country
TTITLE0=01-Stand By Your Man
TTITLE1=02-The Way To Love A Man
TTITLE2=03-Alive And Well 
TTITLE3=04-Good Lovin'
TTITLE4=05-Crying In The Rain
TTITLE5=06-Apartment No 9
TTITLE6=07-D-I-V-O-R-C-E
TTITLE7=08-Till I Get It Right
TTITLE8=09-Don't Touch Me
TTITLE9=10-Singing My Song
TTITLE10=11-Take Me To Your World
TTITLE11=12-Run Woman Run.mp3
TTITLE12=13-When He Loves Me
TTITLE13=14-Your Good Girl's Gonna Go Bad
EXTD=
EXTT0=
EXTT1=
EXTT2=
EXTT3=
EXTT4=
EXTT5=
EXTT6=
EXTT7=
EXTT8=
EXTT9=
EXTT10=
EXTT11=
EXTT12=
EXTT13=
PLAYORDER=
